<?xml version="1.0" standalone="no"?><!DOCTYPE svg PUBLIC "-//W3C//DTD SVG 1.1//EN" "http://www.w3.org/Graphics/SVG/1.1/DTD/svg11.dtd"><svg t="1588758492703" class="icon" viewBox="0 0 1024 1024" version="1.1" xmlns="http://www.w3.org/2000/svg" p-id="4785" xmlns:xlink="http://www.w3.org/1999/xlink" width="64" height="64"><defs><style type="text/css"></style></defs><path d="M973.937778 926.151111h-102.4v-455.111111H739.555556v455.111111h-64.284445V333.368889l150.755556-150.755556-40.391111-40.391111-110.364445 110.364445V238.933333H544.995556v143.36L484.124444 443.733333 341.333333 300.942222l-19.911111 20.48-170.666666 170.666667 39.822222 39.822222L341.333333 381.724444l142.222223 142.222223 61.44-60.871111v463.075555H479.004444v-212.195555H349.297778v212.195555H284.444444v-310.044444H152.462222v310.044444h-56.888889V50.062222A15.928889 15.928889 0 0 0 81.92 34.133333a16.497778 16.497778 0 0 0-15.928889 15.928889v876.088889H50.062222a15.928889 15.928889 0 0 0-15.928889 15.928889 16.497778 16.497778 0 0 0 15.928889 15.928889h15.928889v15.928889a16.497778 16.497778 0 0 0 15.928889 15.928889 15.928889 15.928889 0 0 0 15.928889-15.928889v-15.928889h876.088889a16.497778 16.497778 0 0 0 15.928889-15.928889 15.928889 15.928889 0 0 0-15.928889-15.928889z" p-id="4786"></path></svg>