<?xml version="1.0" standalone="no"?><!DOCTYPE svg PUBLIC "-//W3C//DTD SVG 1.1//EN" "http://www.w3.org/Graphics/SVG/1.1/DTD/svg11.dtd"><svg t="1588758115183" class="icon" viewBox="0 0 1024 1024" version="1.1" xmlns="http://www.w3.org/2000/svg" p-id="2390" xmlns:xlink="http://www.w3.org/1999/xlink" width="64" height="64"><defs><style type="text/css"></style></defs><path d="M732.16 371.2h238.08v199.68h-238.08zM368.64 371.2h332.8v199.68H368.64z" p-id="2391"></path><path d="M122.88 371.2h212.48v197.12H122.88zM368.64 622.08h601.6v151.04H368.64z" p-id="2392"></path><path d="M368.64 814.08h332.8v143.36H368.64zM732.16 814.08h230.4v143.36h-230.4z" p-id="2393"></path><path d="M970.24 317.44H122.88V201.3696C122.88 167.9104 149.9904 140.8 183.4496 140.8h726.2208C943.1296 140.8 970.24 167.9104 970.24 201.3696V317.44z" p-id="2394"></path><path d="M337.3312 622.8736l-212.736-1.5616-2.0224 274.688c-0.256 33.4592 26.6752 60.7744 60.1088 61.0048l152.1664 1.1264 2.4832-335.2576z" p-id="2395"></path></svg>