<?xml version="1.0" standalone="no"?><!DOCTYPE svg PUBLIC "-//W3C//DTD SVG 1.1//EN" "http://www.w3.org/Graphics/SVG/1.1/DTD/svg11.dtd"><svg t="1589615487023" class="icon" viewBox="0 0 1095 1024" version="1.1" xmlns="http://www.w3.org/2000/svg" p-id="2379" xmlns:xlink="http://www.w3.org/1999/xlink" width="68.4375" height="64"><defs><style type="text/css"></style></defs><path d="M414.37505211 993.94207935c-30.34936705 0-63.13250711-22.15386864-63.1325071-72.60851632V492.98378406L44.29023428 137.88220362c-8.964722-9.22036561-15.75131463-20.23367563-20.23367564-32.27070644a55.60764326 55.60764326 0 0 1 0-41.10588707c6.14805679-12.93350302 17.03182543-23.17873584 30.35051344-28.42917405 12.03703082-4.8663996 24.97053385-7.17063122 37.90403688-6.91498761h739.7844507c12.93464941-0.25564361 25.86815243 2.04858801 37.90518326 6.91498761 13.31754163 5.25043821 24.20245666 15.49567101 30.34936707 28.42917405a55.60764326 55.60764326 0 0 1 0 41.10588707c-4.48236101 12.03703082-11.26895361 23.05034084-20.23367563 32.27070644l-287.74235593 355.74126265v257.13849164c-2.56102161 53.78374649-20.61771423 104.23839419-61.21116771 139.58255585l-71.19961052 82.72420775c-14.34240883 12.80510803-32.65474505 20.10528064-51.86240711 20.87335784h6.27415902z m338.06860862-447.942626h273.14659627c32.27070645 0 58.39335611 18.69637484 58.39335611 41.74671567s-26.12379605 41.74556928-58.39335611 41.7455693H752.44480711c-32.27070645 0-58.39450249-18.69637484-58.39450248-41.7455693s26.12379605-41.74671568 58.39450248-41.74671567z m273.14659627 163.6566175H752.44480711c-32.27070645 0-58.39450249 18.69637484-58.39450248 41.74671568s26.12379605 41.74556928 58.39450248 41.74556927h273.14544989c32.27070645 0 58.39335611-18.69637484 58.39335611-41.74556927s-26.12379605-41.74671568-58.39335611-41.74671568z m0 163.01578889H752.44480711c-20.87335784 0-40.08216627 7.9398548-50.58304268 20.87335784-10.37248141 12.93350302-10.37248141 28.81321264 0 41.74671568 10.37362781 12.93350302 29.70968484 20.87335784 50.58304268 20.87335781h273.14544989c20.87335784 0 40.08101988-7.9398548 50.5818963-20.87335781 10.37248141-12.93350302 10.37248141-28.81321264 0-41.74671568-10.50087642-12.93350302-29.70853847-20.87335784-50.5818963-20.87335784z m0 0" p-id="2380"></path></svg>